# xmcd
#
# Track frame offsets: 
#        150
#        19970
#        31087
#        41897
#        55167
#        69271
#        87095
#        106750
#        121850
#        141093
#        162934
#        175863
#        189097
#        200165
#        215558
#        225881
#        244469
#        258464
#        280857
#        298104
#        309177
#
# Disc length: 4273 seconds
#
# Revision: 0
# Processed by: cddbd v1.5.2PL0 Copyright (c) Steve Scherf et al.
# Submitted via: ExactAudioCopyFreeDBPlugin 1.0
#
DISCID=2410af15
DTITLE=Michal Tucny - Legenda [CD3)
DYEAR=2015
DGENRE=Country
TTITLE0=Karolina
TTITLE1=Cesty toulavy
TTITLE2=Obycejna streka
TTITLE3=Michal Tucny and Zdenek Rytir - Tak uz nefnukej
TTITLE4=Michal Tucny and Pavlina Jisova - Sundej z hodin zavazi
TTITLE5=Michal Tucny and Tomas Linka - Lojza a Liza
TTITLE6=Medicinman
TTITLE7=Michal Tucny and Zdenek Rytir - Dvojnici
TTITLE8=Mesicku
TTITLE9=Viva Las Vegas
TTITLE10=Michal Tucny and Zdenek Rytir - Vcera jsem te nevidel
TTITLE11=Je to zvlastni
TTITLE12=Waterloo
TTITLE13=Cervena reka
TTITLE14=Kocarem mym je vagon uhli
TTITLE15=Osada U tri klad
TTITLE16=Az prijde ten den
TTITLE17=Cerny Bill a bila Nelly
TTITLE18=Stastne stare slunce
TTITLE19=Sest bilych koni
TTITLE20=Michal Tucny and Jitka Molavcova - Nezachazej, slunce [bonus]
EXTD=
EXTT0=
EXTT1=
EXTT2=
EXTT3=
EXTT4=
EXTT5=
EXTT6=
EXTT7=
EXTT8=
EXTT9=
EXTT10=
EXTT11=
EXTT12=
EXTT13=
EXTT14=
EXTT15=
EXTT16=
EXTT17=
EXTT18=
EXTT19=
EXTT20=
PLAYORDER=
